<?xml version="1.0" encoding="UTF-8"?>
<svg id="_图层_1" data-name="图层 1" xmlns="http://www.w3.org/2000/svg" viewBox="0 0 48 48">
  <defs>
    <style>
      .cls-1 {
        fill: #d0cfce;
      }

      .cls-2 {
        stroke-miterlimit: 10;
      }

      .cls-2, .cls-3 {
        fill: none;
        stroke: #000;
        stroke-linecap: round;
        stroke-width: 2px;
      }

      .cls-4 {
        fill: #9b9b9a;
      }

      .cls-3 {
        stroke-linejoin: round;
      }

      .cls-5 {
        fill: #face64;
      }
    </style>
  </defs>
  <circle class="cls-5" cx="24" cy="23.64" r="23"/>
  <path class="cls-4" d="M46.3,42.2l-1.95,1.95c-.94.94-2.46.94-3.4,0l-4.86-4.86c-.94-.94-.94-2.46,0-3.4l1.95-1.95c.94-.94,2.46-.94,3.4,0l4.86,4.86c.94.94.94,2.46,0,3.4Z"/>
  <path class="cls-1" d="M38.35,35.79l-.51.51c-.29.29-.75.29-1.04,0l-1.62-1.62c-.29-.29-.29-.75,0-1.04l.51-.51c.29-.29.75-.29,1.04,0l1.62,1.62c.29.29.29.75,0,1.04Z"/>
  <g>
    <path class="cls-3" d="M35.71,33.68l-23.67-.09"/>
    <path class="cls-3" d="M12.56,33.87v3.3"/>
    <path class="cls-3" d="M14.47,30.03v3.3"/>
    <path class="cls-3" d="M16.41,33.87v3.3"/>
    <path class="cls-3" d="M18.32,30.03v3.3"/>
    <path class="cls-3" d="M20.25,33.87v3.3"/>
    <path class="cls-3" d="M22.16,30.03v3.3"/>
    <path class="cls-3" d="M24.1,33.87v3.3"/>
    <path class="cls-3" d="M26.02,30.03v3.3"/>
    <path class="cls-3" d="M27.93,33.87v3.3"/>
    <path class="cls-3" d="M29.84,30.03v3.3"/>
    <path class="cls-3" d="M31.81,33.87v3.3"/>
    <path class="cls-3" d="M33.7,30.03v3.3"/>
    <path class="cls-2" d="M38.92,33.33c.85-.31,1.84-.12,2.52.56l4.86,4.86c.94.94.94,2.46,0,3.4l-1.95,1.95c-.94.94-2.46.94-3.4,0l-4.86-4.86c-.65-.65-.85-1.57-.6-2.39"/>
    <path class="cls-3" d="M45.48,32.24c.98-2.56,1.52-5.33,1.52-8.24,0-12.7-10.3-23-23-23-12.7,0-23,10.3-23,23s10.3,23,23,23c4.07,0,7.89-1.06,11.21-2.91"/>
  </g>
  <path d="M18,19c0,1.66-1.34,3-3,3s-3-1.34-3-3,1.34-3,3-3,3,1.34,3,3"/>
  <path d="M36,19c0,1.66-1.34,3-3,3s-3-1.34-3-3,1.34-3,3-3,3,1.34,3,3"/>
</svg>